<svg version="1.2" xmlns="http://www.w3.org/2000/svg" viewBox="0 0 256 256" width="256" height="256"><style></style><path  d="m-0.9 98.8h25.1v5.8h-18.4v14.1h17.7v5.7h-17.7v21.6h-6.7zm66.1 30q0 5.3-2.2 9.4-2.3 4.2-6.4 6.5-4.1 2.3-9.2 2.3-5 0-9.1-2.4-4-2.3-6.3-6.5-2.2-4.2-2.2-9.3 0-4 1.2-7.3 1.4-3.4 3.7-5.8 2.5-2.5 5.7-3.9 3.3-1.3 7.1-1.3 3.8 0 7.1 1.3 3.2 1.3 5.7 3.8 2.4 2.5 3.7 5.9 1.2 3.4 1.2 7.3zm-6.8 0.1q0-2.8-0.8-5.3-0.8-2.5-2.3-4.3-1.4-1.8-3.4-2.8-2-0.9-4.4-0.9-4.7 0-7.8 3.7-3.2 3.7-3.2 9.4 0 3.8 1.4 6.8 1.4 3 3.9 4.7 2.6 1.6 5.7 1.6 3.1 0 5.6-1.6 2.5-1.6 3.9-4.6 1.4-3 1.4-6.7zm39.1-17.6h6v28.7q0 5.2-0.6 8.9-0.6 3.7-2.3 6.5-1.8 2.7-5.1 4.1-3.4 1.5-8.8 1.5-6.5 0-13.2-2.4l0.7-6.2q6.4 3.1 12.4 3.1 3.5 0 6-1.3 2.5-1.4 3.6-3.9 0.7-1.3 1-2.9 0.2-1.6 0.2-3.8 0.1-2.1 0.1-3.2-3.9 5.7-11.5 5.7-4.5 0-8-2.1-3.4-2.2-5.3-6.1-1.9-3.9-1.9-9 0-5.2 1.9-9.4 1.9-4.1 5.3-6.4 3.4-2.3 7.8-2.3 4.1 0 7.2 1.8 3.2 1.8 4.5 4.8 0.1-0.2 0.1-0.4 0-0.3 0-0.4l-0.1-1zm-10.2 5q-2.8 0-5 1.6-2.3 1.6-3.5 4.5-1.3 2.8-1.3 6.4 0 3.5 1.3 6.2 1.2 2.7 3.4 4.2 2.2 1.5 4.9 1.5 2.2 0 4.1-0.9 1.9-0.9 3.2-2.5 1.4-1.7 2.1-3.9 0.8-2.2 0.8-4.8 0-3.4-1.4-6.2-1.2-2.9-3.6-4.5-2.2-1.6-5-1.6zm48.9-16.6l-0.8 5.9q-5-1.9-8.8-1.9-2.6 0-4.5 0.8-1.9 0.8-3 2.3-1 1.5-1 3.4 0 3.1 2.1 4.7 2.2 1.7 7.6 4.5 5.5 2.8 8.2 5.7 2.7 2.9 2.7 7.6 0 4.2-2 7.5-2 3.3-5.7 5-3.6 1.8-8.4 1.8-5.6 0-10.8-1.9l0.7-6.3q5.3 2.4 9.3 2.4 2.9 0 5.1-0.9 2.2-1 3.4-2.8 1.2-1.8 1.2-4.3 0-3.5-2.4-5.3-2.4-1.8-7.5-4.3-5.2-2.5-7.9-5.2-2.7-2.7-2.7-7.5 0-3.8 1.9-6.8 1.8-2.9 5.2-4.5 3.5-1.6 7.8-1.6 5.5 0 10.3 1.7zm13.6 3.9l6.4-2.2v10.2h9.2v5h-9.2v13.6q0 4.6 0.4 6.8 0.3 1.9 1.7 3 1.4 1 3.6 1 2 0 4.2-1v5.5q-3.1 1-6 1-4.5 0-6.8-1.9-2.2-1.8-2.9-4.8-0.6-2.9-0.6-7.7v-15.5h-8v-5h8zm46.5 7.9h6.4v21.7q0 2.9 0.5 12.8h-6l-0.2-5.4q-2.1 2.9-5.1 4.4-2.9 1.5-6.6 1.5-7.2 0-10-4.5-2.8-4.5-2.8-12.2v-18.3h6.4v16q0 1.9 0.1 3.9 0.1 2.1 0.2 3.2 0.2 1.2 0.6 2.1 0.9 2.3 2.6 3.5 1.8 1.2 4.2 1.2 2.2 0 4-0.9 1.8-0.9 3.1-2.5 1.2-1.7 1.9-4 0.7-2.3 0.7-5.1v-2.3zm35.9-16.1v5.3q-1.8-0.4-3.3-0.4-3.9 0-5 2.5-1.1 2.4-1.1 7v1.8h9.4v5h-9.4v29.4h-6.4v-29.4h-8.2v-5h8.2q0-4.8 0.7-8.5 0.8-3.7 3.3-6 2.5-2.3 7.1-2.3 2.2 0 4.7 0.6zm25 0v5.3q-1.8-0.4-3.3-0.4-3.9 0-5 2.5-1.1 2.4-1.1 7v1.8h9.4v5h-9.4v29.4h-6.4v-29.4h-8.2v-5h8.2q0-4.8 0.7-8.5 0.8-3.7 3.3-6 2.5-2.3 7.1-2.3 2.2 0 4.7 0.6z"/></svg>