<svg version="1.2" xmlns="http://www.w3.org/2000/svg" viewBox="0 0 800 256" width="800" height="256"><style>.a{fill:#ffffff}</style><path class="a" d="m-3 45.4h78.3v18.2h-57.2v43.9h55.1v18h-55.1v67.5h-21.1zm207.5 93.8q0 16.4-7.1 29.4-7.1 12.9-19.9 20.2-12.8 7.1-28.8 7.1-15.7 0-28.3-7.2-12.5-7.4-19.6-20.5-7.2-13.1-7.2-29 0-12.5 4-22.9 4.1-10.5 11.6-18.2 7.6-7.8 17.7-12 10.3-4.2 22.1-4.2 11.8 0 22.1 4.1 10.3 4.1 17.8 11.9 7.6 7.8 11.6 18.4 4 10.6 4 22.9zm-21.3 0.4q0-8.8-2.6-16.7-2.5-7.9-7.1-13.4-4.5-5.6-10.8-8.7-6.2-3-13.5-3-14.8 0-24.7 11.7-9.7 11.6-9.7 29.5 0 11.7 4.3 21.1 4.5 9.4 12.3 14.6 7.8 5.2 17.8 5.2 9.6 0 17.4-5.1 7.8-5.1 12.2-14.4 4.4-9.3 4.4-20.8zm122.1-55.1h18.8v89.7q0 16.1-2 27.8-1.8 11.6-7.3 20.2-5.5 8.4-16 12.9-10.5 4.6-27.3 4.6-20.5 0-41.2-7.3l1.9-19.5q20.2 9.7 38.8 9.7 11 0 18.8-4.2 7.9-4.2 11.5-12.1 2.1-4.1 2.9-9.1 0.7-5.1 0.7-11.8 0.2-6.7 0.4-10.1-12.2 17.9-36.1 17.9-14.1 0-24.9-6.7-10.8-6.7-16.7-18.8-6-12.2-6-28.3 0-16.3 6-29.3 5.9-12.9 16.5-20 10.7-7.1 24.7-7.1 12.6 0 22.4 5.6 10 5.6 14.1 15 0.1-0.8 0.1-1.5 0.1-0.6 0.1-1.2l-0.2-2.9zm-31.9 15.6q-8.8 0-15.8 5.1-7 4.9-10.9 13.9-3.9 8.9-3.9 20.1 0 10.9 3.8 19.3 3.9 8.3 10.7 13 6.8 4.6 15.4 4.6 7 0 12.8-2.7 5.8-2.8 10-7.8 4.4-5.1 6.6-12 2.3-7 2.3-15.3 0-10.6-4.1-19.3-4-8.9-11.2-13.8-7.2-5.1-15.7-5.1zm152.9-52l-2.6 18.6q-15.8-6.1-27.7-6.1-8 0-14 2.6-6 2.5-9.3 7.2-3.3 4.5-3.3 10.7 0 9.6 6.7 14.7 6.8 5 23.8 13.9 17.1 8.7 25.6 17.8 8.6 9 8.6 23.9 0 13-6.3 23.2-6.3 10.3-17.8 15.8-11.5 5.5-26.4 5.5-17.6 0-33.6-5.8l2.2-19.9q16.3 7.8 28.9 7.8 9 0 15.9-3 7-3.1 10.7-8.7 3.8-5.7 3.8-13.4 0-11-7.5-16.6-7.4-5.8-23.6-13.5-16.3-7.8-24.6-16.1-8.3-8.5-8.3-23.7 0-11.9 5.7-21 5.9-9.1 16.5-14.2 10.7-5.1 24.3-5.1 17.1 0 32.3 5.4zm41 12.3l20-6.8v31.7h28.7v15.6h-28.7v42.5q0 14.6 1.3 21.3 1 5.8 5.3 9.3 4.4 3.3 11.2 3.3 6.3 0 13.1-3.3v17.3q-9.5 3-18.6 3-14 0-21.2-5.7-7.1-5.8-9.1-15.1-2-9.2-2-24v-48.6h-24.9v-15.6h24.9zm145.2 24.6h20v68.1q0 8.8 1.5 39.8h-18.6l-0.9-16.8q-6.5 9.2-15.7 13.8-9.2 4.6-20.8 4.6-22.6 0-31.3-14.1-8.8-14-8.8-38.1v-57.3h20.1v50.1q0 6 0.3 12.4 0.3 6.3 0.8 9.9 0.6 3.6 1.6 6.6 3 7.1 8.4 10.9 5.5 3.7 12.9 3.7 6.9 0 12.6-2.7 5.6-2.8 9.6-8 4-5.2 6.1-12.4 2.2-7.3 2.2-15.9v-7.3zm112.1-50.4v16.7q-5.6-1.3-10.3-1.3-12.1 0-15.6 7.8-3.5 7.7-3.5 21.8v5.6h29.4v15.7h-29.4v92.1h-20.1v-92.1h-25.5v-15.7h25.5q0-14.9 2.4-26.3 2.5-11.6 10.2-18.8 7.8-7.4 22.3-7.4 6.9 0 14.6 1.9zm79 0v16.7q-5.6-1.3-10.3-1.3-12.1 0-15.6 7.8-3.5 7.7-3.5 21.8v5.6h29.4v15.7h-29.4v92.1h-20.1v-92.1h-25.5v-15.7h25.5q0-14.9 2.4-26.3 2.5-11.6 10.2-18.8 7.8-7.4 22.3-7.4 6.9 0 14.6 1.9z"/></svg>