<svg version="1.2" xmlns="http://www.w3.org/2000/svg" viewBox="0 0 800 800" width="800" height="800"><style>.a{fill:#b17c2a}.b{fill:#b17c2a;stroke:#000;paint-order:stroke fill markers;stroke-linejoin:round;stroke-width:12}.c{fill:#412814}</style><path fill-rule="evenodd" class="a" d="m635 163c-9.4 0-17-7.6-17-17 0-9.4 7.6-17 17-17 9.4 0 17 7.6 17 17 0 9.4-7.6 17-17 17z"/><path fill-rule="evenodd" class="a" d="m731.5 268c-7.5 0-13.5-6-13.5-13.5 0-7.5 6-13.5 13.5-13.5 7.5 0 13.5 6 13.5 13.5 0 7.5-6 13.5-13.5 13.5z"/><path fill-rule="evenodd" class="a" d="m658 557c-5.5 0-10-4.5-10-10 0-5.5 4.5-10 10-10 5.5 0 10 4.5 10 10 0 5.5-4.5 10-10 10z"/><path fill-rule="evenodd" class="b" d="m458 782c-219 0-396-171.6-396-384 0-212.4 177-384 396-384 91.4 0 176 31.5 208.6 53.3 18.4 12.2-77 2.3-125.5 130.7-14.3 37.7-8.2 70.4-3.1 90.8 3.3 13.3-67.8 48.8-43.9 140.9 12.3 47.3 28.4 76 69.3 106.7 5.9 4.5 6.9 76.7 94.8 114 39.3 16.7 59 25 77.5 17.9 10.2-4-58.7 113.7-277.7 113.7z"/><path fill-rule="evenodd" class="c" d="m234 265c-21.6 0-39-17-39-38 0-21 17.4-38 39-38 21.6 0 39 17 39 38 0 21-17.4 38-39 38z"/><path fill-rule="evenodd" class="c" d="m399.5 450c-34.6 0-62.5-27.3-62.5-61 0-33.7 27.9-61 62.5-61 34.6 0 62.5 27.3 62.5 61 0 33.7-27.9 61-62.5 61z"/><path fill-rule="evenodd" class="c" d="m204.5 620c-29 0-52.5-23.9-52.5-53.5 0-29.6 23.5-53.5 52.5-53.5 29 0 52.5 23.9 52.5 53.5 0 29.6-23.5 53.5-52.5 53.5z"/><path fill-rule="evenodd" class="c" d="m519 727c-18.8 0-34-15-34-33.5 0-18.5 15.2-33.5 34-33.5 18.8 0 34 15 34 33.5 0 18.5-15.2 33.5-34 33.5z"/><path fill-rule="evenodd" class="c" d="m543.3 193c-2.5 6.2-42.3-28.7-37.4-58.1 3.6-21.5 23.9-45.8 49.6-45.9 28.5-0.1 37.7 9.8 42.3 19.6 2.8 6-9.1 4.4-33.8 41-7.7 11.4-16.3 32.3-20.7 43.4z"/></svg>